<?xml version="1.0" standalone="no"?>
<!DOCTYPE svg PUBLIC "-//W3C//DTD SVG 20010904//EN"
 "http://www.w3.org/TR/2001/REC-SVG-20010904/DTD/svg10.dtd">
<svg version="1.0" xmlns="http://www.w3.org/2000/svg"
 width="916.000000pt" height="901.000000pt" viewBox="0 0 916.000000 901.000000"
 preserveAspectRatio="xMidYMid meet">

<g transform="translate(0.000000,901.000000) scale(0.100000,-0.100000)"
fill="#000000" stroke="none">
<path d="M5116 8993 c-2 -10 -5 -45 -5 -78 0 -49 -4 -62 -21 -74 -27 -18 -25
-29 5 -41 14 -5 25 -16 25 -24 0 -8 6 -21 13 -28 18 -20 47 -77 47 -93 0 -27
-41 -28 -90 -2 -26 14 -76 28 -111 32 -35 4 -73 14 -84 21 -31 22 -142 16
-209 -12 -14 -5 -17 -4 -12 4 5 8 -2 12 -19 12 -14 0 -24 -4 -20 -9 3 -6 -11
-13 -32 -16 -65 -10 -203 -59 -199 -70 2 -6 -18 -24 -45 -39 -27 -15 -49 -31
-49 -37 0 -5 -11 -9 -25 -9 -14 0 -30 -9 -37 -20 -7 -11 -17 -20 -21 -20 -9 0
-62 -42 -142 -112 -24 -22 -53 -38 -66 -38 -17 0 -28 -9 -37 -28 -7 -16 -23
-35 -37 -42 -14 -7 -27 -20 -30 -29 -3 -9 -21 -33 -40 -54 -63 -69 -32 -95 35
-29 79 76 178 151 203 152 9 0 17 6 17 13 0 6 23 26 50 42 27 17 50 35 50 40
0 6 30 26 66 45 37 19 76 43 87 53 11 9 26 17 34 17 7 0 13 5 13 10 0 6 8 10
18 10 9 0 33 11 52 23 40 27 70 36 155 47 33 5 90 14 126 20 67 13 86 9 161
-31 10 -5 25 -9 34 -9 9 0 44 -13 78 -29 33 -16 83 -37 110 -48 28 -10 52 -27
59 -40 6 -14 19 -23 32 -23 12 0 37 -13 55 -30 51 -45 85 -41 143 18 26 26 47
53 47 59 0 17 108 106 165 137 53 28 106 40 250 57 74 8 91 8 100 -4 5 -8 33
-16 60 -19 44 -4 150 -47 165 -66 8 -11 83 -66 107 -79 34 -18 30 6 -10 59
-35 48 -122 97 -172 98 -33 0 -57 12 -56 26 1 5 -38 12 -86 16 -49 4 -104 12
-123 17 -19 6 -51 13 -70 16 -19 3 -57 10 -85 14 -132 22 -213 31 -239 25
l-30 -6 34 -18 c26 -14 39 -15 61 -6 35 12 56 -3 44 -31 -5 -10 -9 -25 -9 -33
-1 -8 -12 -20 -24 -26 -13 -6 -29 -17 -35 -23 -6 -6 -17 -11 -25 -11 -7 0 -36
-25 -64 -55 -27 -30 -56 -55 -63 -55 -13 0 -65 72 -65 90 0 5 -10 30 -22 55
l-22 45 25 26 c18 19 31 24 51 20 17 -3 31 0 39 10 8 10 22 13 38 10 14 -3 6
4 -19 15 -25 11 -66 23 -91 26 -30 4 -56 14 -73 30 -23 21 -26 32 -26 88 l0
65 -54 0 c-43 0 -56 -4 -60 -17z"/>
<path d="M4615 8831 c-15 -15 1 -22 38 -18 23 2 77 0 120 -5 59 -8 90 -7 124
3 42 11 44 13 23 21 -23 8 -297 8 -305 -1z"/>
<path d="M4465 8815 c-16 -9 -53 -18 -82 -19 -29 -2 -59 -8 -66 -14 -7 -6 -33
-14 -57 -18 -25 -3 -54 -12 -65 -19 -11 -6 -38 -15 -60 -19 -21 -4 -45 -16
-52 -26 -7 -9 -32 -23 -57 -29 -24 -6 -50 -17 -58 -24 -19 -19 -49 -30 -85
-32 -18 -1 -47 -13 -65 -27 -18 -13 -41 -27 -50 -31 -10 -3 -18 -13 -18 -20 0
-8 -13 -20 -29 -26 -15 -7 -38 -25 -50 -42 -12 -16 -28 -29 -36 -29 -14 0 -94
-68 -144 -122 -14 -16 -30 -28 -36 -28 -10 0 -50 -54 -74 -100 -33 -65 -157
-94 -180 -43 -10 22 -41 33 -41 15 0 -10 33 -84 60 -134 11 -20 20 -56 20 -79
l0 -42 -52 8 c-29 4 -64 8 -78 10 -56 7 -188 6 -230 -3 -52 -10 -78 -22 -141
-68 -26 -19 -53 -34 -62 -34 -20 0 -65 70 -75 118 -7 28 -5 44 4 57 12 16 12
21 -1 35 -14 15 -11 21 22 58 21 22 52 44 68 48 17 4 35 10 40 14 25 17 138
34 218 31 71 -2 87 0 87 12 0 31 -66 34 -219 11 -127 -19 -153 -28 -145 -49 5
-12 0 -14 -25 -9 -16 4 -41 4 -54 0 -29 -7 -82 -59 -104 -100 -8 -16 -26 -39
-40 -52 l-26 -24 27 0 c15 0 29 7 32 15 7 17 49 20 59 5 3 -5 8 -44 10 -86 3
-61 8 -79 24 -90 10 -7 22 -29 25 -48 4 -20 13 -39 19 -43 7 -5 19 -24 27 -43
19 -51 115 -166 161 -195 21 -14 39 -32 39 -40 0 -8 -16 -25 -35 -37 -19 -13
-35 -28 -35 -34 0 -14 -32 -24 -77 -24 -17 0 -35 -4 -38 -10 -9 -15 -94 -12
-140 6 -34 12 -46 25 -66 66 -17 38 -30 52 -46 53 -13 1 -23 -4 -23 -10 0 -14
25 -81 41 -108 14 -26 2 -72 -28 -107 -25 -30 -28 -65 -6 -65 17 0 83 -64 83
-80 0 -7 4 -15 9 -17 4 -1 32 -38 61 -81 52 -77 53 -78 46 -136 -4 -33 -3 -62
2 -65 5 -3 29 4 52 15 38 19 48 20 83 9 36 -10 42 -9 74 13 l34 25 65 -22 c71
-24 84 -36 84 -80 0 -16 7 -34 16 -40 12 -10 16 -33 17 -107 2 -110 -14 -150
-68 -166 -43 -14 -134 2 -204 34 -29 13 -76 26 -103 28 -28 2 -58 11 -67 20
-10 8 -23 15 -29 15 -6 0 -32 18 -57 40 -25 22 -58 42 -73 45 -92 19 -86 14
-93 90 -9 93 14 197 53 245 20 25 28 45 28 75 0 47 -14 65 -48 65 -22 0 -24 3
-18 35 4 19 4 35 1 35 -44 0 -275 -227 -275 -271 0 -16 77 -10 91 7 7 9 23 20
36 25 13 5 23 15 23 24 0 19 4 19 40 0 25 -13 29 -21 35 -80 4 -35 4 -82 -1
-102 -4 -21 -7 -45 -6 -53 1 -8 4 -40 6 -70 5 -69 31 -94 107 -103 30 -4 66
-16 82 -27 15 -12 37 -20 49 -18 17 2 23 -4 29 -27 3 -16 14 -43 23 -60 9 -16
19 -52 22 -78 8 -57 30 -61 54 -10 23 49 45 54 141 31 105 -25 137 -28 152
-13 7 6 32 14 57 18 32 4 51 13 66 32 l21 26 13 -43 c14 -45 19 -484 6 -525
-4 -11 -17 -25 -30 -31 -19 -8 -25 -21 -31 -64 -11 -78 -7 -467 5 -583 6 -55
13 -154 16 -220 4 -79 12 -139 25 -175 13 -40 20 -95 24 -200 4 -132 12 -196
31 -272 3 -16 2 -28 -2 -28 -11 1 -94 114 -94 128 0 6 -11 19 -24 29 -13 10
-31 33 -40 50 -9 18 -23 36 -32 41 -19 11 -33 70 -34 139 0 28 -4 55 -10 58
-5 3 -9 16 -8 28 1 27 -8 176 -29 452 -8 116 -16 246 -18 290 -4 130 -25 165
-44 75 -6 -28 -11 -64 -11 -81 0 -18 -10 -40 -25 -57 -19 -20 -24 -33 -20 -52
10 -37 7 -80 -5 -95 -15 -18 -27 -308 -19 -445 12 -177 13 -220 6 -227 -4 -3
-18 4 -32 17 -19 18 -25 34 -27 83 -3 62 -21 86 -33 46 -9 -28 15 -198 30
-213 24 -24 23 -46 -5 -100 l-28 -56 39 2 c45 2 65 -13 74 -53 4 -16 11 -31
16 -34 21 -14 7 -54 -31 -89 -22 -20 -45 -36 -51 -36 -6 0 -25 -11 -42 -24
-18 -13 -50 -28 -72 -32 -22 -4 -56 -15 -75 -25 -19 -10 -61 -23 -92 -29 -38
-8 -58 -16 -58 -26 0 -8 -10 -14 -22 -14 -13 -1 -41 -9 -63 -20 -22 -11 -47
-19 -56 -20 -8 0 -33 -9 -55 -19 -22 -11 -54 -23 -70 -27 -16 -4 -38 -13 -49
-20 -11 -8 -26 -14 -35 -14 -9 0 -33 -9 -54 -20 -22 -11 -62 -27 -90 -36 -28
-9 -60 -24 -71 -34 -26 -23 -80 -50 -99 -50 -9 0 -39 -13 -68 -28 -29 -16 -65
-32 -80 -36 -16 -3 -28 -11 -28 -16 0 -6 -17 -10 -37 -10 -28 0 -42 -6 -58
-26 -13 -16 -39 -31 -68 -38 -27 -7 -48 -16 -48 -22 0 -5 18 -13 40 -19 53
-13 61 -24 22 -31 -17 -4 -34 -11 -37 -15 -3 -5 -14 -9 -25 -9 -10 0 -19 -6
-19 -12 -1 -14 -67 -48 -94 -48 -10 0 -29 -9 -43 -20 -16 -12 -41 -20 -66 -20
-35 0 -38 2 -26 16 7 9 24 20 37 25 13 5 21 12 19 16 -3 5 13 9 36 10 42 3 61
12 40 20 -25 9 -12 22 24 25 20 2 38 9 41 16 7 21 -79 2 -117 -27 -22 -16 -58
-30 -100 -37 -37 -6 -65 -16 -64 -22 3 -12 -10 -17 -70 -27 -34 -5 -36 -8 -26
-26 8 -15 17 -19 34 -15 13 3 26 2 29 -3 15 -24 -85 -68 -126 -55 -10 3 -18
14 -18 25 0 13 -7 19 -24 19 -14 0 -27 -4 -30 -9 -3 -5 -30 -15 -58 -21 -29
-7 -64 -21 -77 -31 -13 -11 -33 -19 -45 -19 -11 0 -34 -7 -50 -15 -16 -8 -52
-22 -81 -30 -29 -9 -60 -24 -70 -35 -9 -10 -34 -21 -55 -25 -21 -4 -45 -12
-54 -18 -15 -11 -15 -15 -2 -32 12 -17 17 -18 39 -6 20 11 28 11 46 0 26 -17
27 -29 3 -29 -11 0 -33 -7 -50 -16 -18 -8 -40 -13 -51 -9 -28 9 -36 37 -14 52
30 23 -49 8 -99 -18 -24 -13 -52 -24 -63 -26 -67 -10 -65 -7 -65 -94 0 -79 1
-81 23 -75 12 3 30 6 40 6 9 0 17 7 17 15 0 18 23 30 71 39 21 4 43 13 50 22
7 8 18 13 24 10 14 -5 56 9 125 42 25 12 52 22 61 22 8 0 60 18 115 40 54 22
104 40 110 40 6 0 17 6 23 14 7 8 37 18 67 22 30 3 61 12 67 19 20 20 69 42
108 49 21 4 48 15 62 26 14 11 29 20 33 20 15 0 140 53 189 80 27 15 68 33 90
40 39 11 57 18 120 45 17 7 45 18 63 25 20 8 32 19 32 31 0 15 7 19 32 19 17
0 48 5 67 11 57 19 192 69 236 89 22 10 56 23 75 31 19 7 40 16 45 20 13 10
111 45 149 54 17 3 42 15 56 25 14 10 39 22 56 26 16 4 34 10 39 14 6 4 26 13
45 20 19 8 61 26 93 41 31 15 71 30 87 34 16 3 34 12 40 20 6 7 27 16 48 20
20 4 42 10 47 15 6 4 39 18 75 30 88 29 202 83 219 103 7 10 28 17 46 17 18 0
54 9 80 21 57 25 87 20 127 -23 48 -52 58 -71 58 -110 0 -32 -4 -40 -26 -48
-14 -6 -51 -27 -82 -48 -72 -47 -112 -71 -134 -78 -10 -4 -20 -15 -23 -25 -4
-11 -10 -17 -15 -14 -5 3 -26 -5 -47 -19 -21 -13 -75 -38 -120 -56 -72 -28
-91 -42 -169 -118 -94 -94 -114 -128 -114 -195 0 -24 -5 -48 -12 -55 -6 -6
-15 -47 -19 -89 -8 -86 -34 -187 -55 -218 -8 -11 -14 -31 -14 -46 0 -47 -12
-92 -21 -78 -4 8 -10 11 -13 8 -7 -7 -26 -129 -26 -170 0 -48 -15 -59 -67 -49
-24 4 -43 6 -43 5 0 -17 25 -65 36 -69 8 -3 14 -16 14 -29 0 -13 13 -41 29
-60 l29 -37 6 31 c3 18 6 49 6 70 0 21 7 64 15 96 8 31 15 74 15 94 0 21 7 44
15 53 8 8 15 32 15 53 0 22 10 61 23 89 13 27 36 75 51 108 34 74 80 131 117
147 16 6 33 17 37 23 4 6 23 19 42 28 72 35 142 48 257 48 99 0 125 -4 205
-30 50 -17 97 -30 105 -30 7 0 16 -7 19 -15 4 -8 12 -15 19 -15 16 0 96 -43
162 -86 28 -19 54 -34 56 -34 6 0 95 -57 142 -90 17 -12 44 -30 60 -41 41 -27
156 -103 256 -170 46 -31 100 -72 120 -92 20 -19 51 -43 70 -52 19 -10 40 -26
47 -36 7 -11 17 -19 22 -19 5 0 51 -25 102 -55 50 -30 108 -60 128 -66 52 -17
240 -98 276 -119 17 -10 67 -30 110 -45 44 -15 111 -42 149 -60 91 -43 211
-95 221 -95 4 0 30 -11 58 -24 28 -13 59 -26 69 -30 9 -3 20 -19 24 -36 l6
-31 79 5 c43 3 83 8 88 11 6 4 47 9 93 13 82 7 82 7 85 37 2 16 12 40 23 53
10 14 19 32 19 41 0 9 27 47 60 84 33 38 60 74 60 81 0 6 18 30 40 51 22 21
40 43 40 49 0 5 9 19 19 30 11 12 29 46 41 76 12 30 26 60 32 67 11 14 126
241 146 290 18 44 30 87 48 173 9 41 22 82 29 90 7 8 16 42 20 75 4 33 18 99
32 148 26 86 27 87 62 93 l36 6 -4 51 c-2 40 1 53 14 63 10 8 25 24 34 38 9
13 34 50 55 82 83 125 104 160 111 181 14 48 57 113 75 113 26 0 29 -14 22
-104 -4 -59 -2 -77 7 -72 16 11 51 82 51 106 0 11 9 37 20 57 11 21 20 43 20
50 0 7 6 27 14 45 18 43 52 174 67 263 7 39 16 75 20 80 4 6 12 53 19 105 7
52 16 105 21 118 5 13 7 28 3 33 -5 9 5 70 26 149 15 56 21 372 7 367 -7 -2
-11 -13 -9 -23 1 -10 -1 -57 -4 -103 -6 -73 -8 -82 -20 -67 -14 20 -15 19 -29
-69 -15 -92 -25 7 -31 314 -7 364 -7 369 58 394 22 9 45 14 49 11 5 -3 14 8
20 23 6 15 15 36 20 45 5 10 9 24 9 32 0 12 40 46 54 46 3 0 15 -19 27 -41 16
-32 23 -73 30 -177 6 -75 12 -138 14 -140 3 -3 9 6 14 19 5 13 23 53 39 89 17
36 33 88 37 115 4 28 15 58 24 69 11 12 16 38 17 76 0 32 5 64 11 72 6 7 14
29 17 48 4 19 15 64 26 100 10 36 21 77 25 93 4 22 11 27 34 27 25 0 30 -5 45
-53 9 -29 23 -103 30 -166 14 -107 20 -131 31 -119 13 12 25 234 20 343 -3 66
-8 177 -10 247 -2 69 -8 135 -14 146 -6 10 -13 34 -16 53 -3 19 -14 69 -25
111 -11 43 -20 92 -20 110 0 22 -7 37 -20 46 -11 7 -20 20 -20 30 0 21 -51
144 -58 137 -3 -2 -6 -27 -8 -56 -3 -56 10 -96 39 -120 15 -12 21 -36 28 -107
4 -50 12 -99 17 -109 22 -42 31 -95 37 -203 3 -63 8 -131 11 -150 l5 -35 -16
28 c-9 15 -20 27 -25 27 -12 0 -21 31 -26 96 -2 30 -7 61 -11 67 -5 7 -13 28
-18 47 -7 23 -17 36 -31 38 -41 6 -45 -15 -45 -234 -1 -310 -8 -412 -29 -419
-13 -4 -19 -21 -23 -67 -3 -39 -13 -71 -26 -89 -12 -16 -21 -38 -21 -51 0 -36
-20 0 -20 37 -1 31 -18 96 -39 152 -12 31 -35 45 -93 57 -24 6 -28 11 -28 44
-1 20 0 172 2 337 4 433 4 433 -3 440 -13 12 -57 -7 -66 -28 -6 -13 -11 -61
-12 -107 0 -47 -5 -116 -11 -155 -19 -137 -30 -241 -30 -285 0 -26 -10 -66
-23 -95 -13 -27 -27 -70 -31 -95 -10 -66 -26 -120 -34 -120 -13 0 -39 53 -51
105 -7 27 -17 55 -23 62 -6 7 -8 26 -5 42 4 21 0 37 -13 54 -11 14 -25 48 -31
77 -6 28 -17 54 -24 56 -14 6 -28 111 -27 206 1 74 -20 106 -60 88 -21 -10
-27 -21 -30 -54 -2 -22 1 -46 7 -52 14 -15 4 -116 -12 -121 -7 -3 -15 7 -19
22 -11 42 -29 22 -29 -32 0 -27 -6 -57 -12 -65 -7 -8 -11 -17 -8 -20 3 -3 -1
-11 -9 -17 -15 -13 -11 -22 30 -65 33 -35 42 -99 28 -186 -5 -33 -8 -36 -40
-35 -19 1 -48 12 -64 24 -41 29 -96 38 -217 33 -127 -4 -148 4 -138 56 20 113
69 212 104 212 15 0 14 36 -3 63 -15 25 -28 115 -16 122 4 2 13 32 20 65 11
54 11 63 -3 77 -14 14 -17 13 -30 -13 -8 -16 -17 -53 -20 -81 -7 -62 -33 -123
-53 -123 -7 0 -18 9 -24 20 -6 11 -21 20 -35 20 -27 0 -65 42 -65 72 0 28 -28
33 -54 9 -12 -11 -27 -21 -32 -21 -6 0 -15 -43 -22 -96 -8 -72 -15 -99 -29
-109 -10 -7 -18 -24 -19 -37 -2 -41 -16 -82 -40 -115 -13 -17 -24 -36 -24 -41
0 -5 -10 -16 -22 -24 -16 -11 -22 -26 -24 -57 -1 -23 -8 -47 -16 -54 -15 -12
-48 -62 -48 -72 0 -3 8 -5 18 -5 19 0 38 29 44 65 2 11 9 20 16 20 18 0 32 25
32 56 0 15 7 32 15 39 17 14 45 67 45 85 0 7 8 23 19 36 10 13 23 41 30 61 9
28 19 38 41 43 34 7 50 0 50 -21 0 -9 9 -37 21 -63 19 -44 19 -56 10 -137 -6
-49 -13 -105 -17 -125 -5 -31 -3 -37 16 -42 19 -5 57 7 100 32 48 28 79 36
134 35 71 -1 152 -27 182 -59 11 -12 25 -24 31 -26 23 -9 126 -174 131 -211 6
-47 17 -56 33 -26 8 15 13 78 13 183 2 183 17 267 55 304 l24 23 18 -23 c10
-13 19 -32 19 -41 0 -9 8 -24 18 -34 12 -12 19 -43 25 -103 12 -128 8 -190
-15 -241 -11 -25 -28 -88 -39 -140 -10 -52 -23 -117 -28 -145 -18 -88 -41
-309 -42 -396 0 -46 -4 -109 -9 -139 -5 -30 -14 -117 -20 -194 -8 -108 -14
-146 -30 -171 -11 -18 -20 -44 -20 -58 0 -15 -8 -34 -18 -44 -10 -10 -33 -38
-52 -63 -38 -51 -109 -122 -164 -163 -43 -33 -42 -57 5 -95 26 -21 29 -30 29
-79 0 -77 -28 -224 -47 -245 -9 -10 -27 -18 -40 -18 -28 0 -27 2 -43 -120 -7
-57 -20 -108 -31 -126 -11 -18 -19 -50 -19 -76 0 -24 -9 -69 -20 -101 -11 -31
-20 -68 -20 -81 0 -14 -4 -27 -9 -30 -5 -3 -12 -23 -16 -43 -4 -21 -18 -61
-31 -89 -13 -28 -24 -59 -24 -69 0 -10 -6 -26 -14 -34 -12 -15 -25 -49 -89
-236 -11 -33 -26 -65 -32 -72 -7 -7 -16 -29 -20 -50 -3 -20 -13 -42 -20 -48
-7 -5 -20 -33 -29 -60 -9 -28 -24 -61 -33 -74 -9 -13 -27 -44 -40 -70 -14 -25
-33 -55 -44 -66 -10 -12 -29 -42 -42 -67 -13 -25 -37 -58 -54 -72 -33 -28 -83
-35 -83 -12 0 8 -7 16 -15 20 -8 3 -15 18 -15 33 0 34 45 180 77 247 13 28 23
57 23 65 0 9 13 41 30 71 16 30 29 62 30 71 0 10 13 43 30 74 16 31 30 62 30
67 0 5 16 43 35 84 19 41 42 100 50 131 8 32 26 81 39 108 31 63 65 157 78
215 6 25 16 52 22 60 7 8 18 42 25 75 7 33 23 92 36 130 13 39 26 88 31 110 4
22 12 43 17 47 6 4 -2 10 -19 14 -16 4 -33 10 -39 13 -5 4 -36 15 -67 26 -32
10 -58 23 -58 30 0 22 -45 54 -70 51 -30 -3 -60 -15 -80 -31 -8 -7 -40 -20
-70 -30 -30 -10 -75 -26 -100 -36 -25 -10 -81 -22 -125 -26 -73 -7 -80 -10
-83 -30 -2 -16 2 -23 12 -23 28 0 68 -78 77 -149 4 -37 10 -73 13 -81 3 -8 10
-64 16 -124 13 -142 8 -151 -84 -158 -37 -3 -72 -11 -80 -17 -7 -6 -42 -14
-77 -17 -35 -3 -89 -13 -119 -21 -54 -15 -230 -102 -261 -129 -26 -23 -87 -18
-112 10 -12 13 -40 35 -62 50 -43 29 -185 165 -185 178 0 5 -12 13 -26 18 -17
7 -24 15 -20 25 3 10 -3 17 -19 21 -14 3 -25 11 -25 17 0 13 -11 26 -109 122
-101 100 -213 195 -230 195 -6 0 -15 10 -20 23 -5 13 -21 38 -36 56 -56 65
-81 140 -53 157 25 16 60 10 70 -12 6 -12 28 -30 50 -40 21 -9 52 -31 67 -48
30 -34 100 -76 126 -76 13 0 13 3 3 23 -7 12 -27 38 -45 57 -19 21 -37 56 -44
85 -7 28 -18 57 -25 65 -22 28 -44 79 -44 102 0 13 -7 32 -15 42 -16 22 -21
132 -6 155 7 10 13 11 30 2 43 -24 22 17 -37 67 -57 50 -57 50 -69 128 -7 44
-15 104 -19 134 -9 76 -23 97 -25 40 -2 -25 -2 -54 0 -65 1 -11 3 -65 5 -120
3 -106 12 -155 30 -167 6 -4 11 -41 12 -85 1 -48 7 -92 18 -115 17 -38 21 -78
9 -78 -21 0 -83 56 -93 83 -6 18 -36 57 -68 87 -32 30 -67 73 -77 95 -11 22
-27 48 -36 57 -10 10 -20 43 -24 80 -7 68 -19 109 -45 148 -9 14 -22 57 -29
95 -7 39 -21 102 -32 141 -10 38 -19 91 -19 116 0 25 -9 65 -19 89 -12 27 -22
80 -26 134 -4 50 -13 107 -21 128 -8 20 -14 57 -14 81 0 27 -6 48 -15 56 -10
8 -15 31 -15 69 0 32 -6 65 -13 75 -12 16 -13 16 -29 -1 -32 -37 -39 -114 -41
-457 -1 -185 -5 -336 -9 -336 -5 0 -8 11 -8 24 0 35 -10 56 -26 56 -8 0 -14
10 -14 24 0 13 -7 43 -15 67 -25 71 -75 307 -85 409 -6 52 -15 120 -20 151 -6
30 -10 69 -10 86 0 17 -5 33 -11 35 -8 3 -12 73 -15 218 -2 118 -6 280 -8 360
-8 316 16 614 54 654 5 5 6 22 3 38 -4 20 -1 33 8 38 15 10 33 74 53 188 7 41
18 77 25 81 6 4 16 33 21 63 5 31 13 64 19 75 5 10 17 39 27 65 9 26 27 62 40
80 13 17 24 40 24 51 0 10 24 44 54 75 29 31 56 69 60 84 4 16 11 25 19 22 8
-3 25 21 45 64 20 43 50 86 81 115 28 27 52 60 56 76 3 16 13 35 21 42 19 16
18 59 -1 59 -9 0 -34 -17 -58 -37 -23 -21 -51 -43 -62 -49 -11 -6 -22 -22 -25
-36 -3 -13 -20 -42 -38 -63 -86 -105 -132 -168 -132 -180 0 -7 -8 -27 -17 -44
-38 -67 -83 -17 -94 104 -4 39 -15 99 -24 135 -16 61 -16 69 0 137 13 53 22
74 36 78 10 4 19 12 19 19 0 7 14 23 31 35 22 17 28 26 20 34 -18 18 -12 27
19 27 17 0 30 4 30 9 0 5 13 11 28 14 27 5 124 93 143 130 6 9 28 25 50 33 39
16 50 37 27 48 -7 3 0 4 16 1 20 -4 35 0 50 13 11 11 45 33 74 48 29 16 63 35
75 41 12 7 34 13 48 13 15 0 32 6 38 14 6 7 32 16 58 20 26 3 54 13 63 21 17
15 115 45 147 45 9 0 24 6 32 14 16 13 163 36 236 36 21 0 36 2 34 5 -5 4 -39
12 -61 14 -5 1 -7 7 -5 14 3 19 -73 20 -108 2z m-1385 -975 c16 0 35 -7 44
-15 8 -8 21 -15 30 -15 25 0 26 -15 3 -71 -26 -65 -55 -104 -83 -113 -11 -3
-30 -26 -42 -51 -13 -27 -34 -50 -52 -60 -31 -16 -32 -16 -87 22 -75 51 -153
140 -153 173 0 48 98 120 165 121 22 0 58 4 80 8 22 5 46 7 53 5 8 -2 26 -4
42 -4z m250 -65 c16 -32 21 -53 16 -76 -3 -18 -1 -47 6 -66 11 -30 10 -35 -9
-48 -15 -10 -21 -25 -21 -50 0 -40 -59 -164 -82 -173 -8 -3 -33 -25 -55 -49
-36 -39 -49 -46 -120 -62 -44 -10 -101 -22 -127 -25 -57 -8 -188 3 -188 16 0
16 60 68 79 68 10 0 25 8 32 17 8 9 40 33 72 54 32 21 68 53 80 71 13 18 42
46 66 62 24 16 47 41 52 56 6 15 23 37 39 49 17 12 30 28 30 36 0 19 19 53 47
85 12 14 26 37 32 53 14 37 24 34 51 -18z m-70 -601 c0 -62 -4 -80 -18 -93
-19 -17 -45 -98 -36 -113 3 -5 -4 -23 -15 -42 -12 -19 -21 -50 -21 -74 0 -24
-10 -60 -24 -86 l-24 -45 -7 37 c-20 101 -9 336 18 388 10 20 31 37 56 47 22
9 42 25 46 37 14 43 25 17 25 -56z m2788 -828 c4 -51 -5 -86 -23 -86 -8 0 -18
12 -21 28 -4 15 -11 33 -17 40 -15 20 12 64 37 60 16 -2 22 -12 24 -42z
m-3126 -1920 c53 -22 61 -37 48 -85 -6 -23 -17 -41 -24 -41 -7 0 -27 -3 -43
-6 -34 -7 -42 5 -49 73 -2 29 1 47 12 57 19 19 14 19 56 2z m530 -194 c21 -17
15 -35 -29 -89 -53 -66 -91 -54 -101 33 -4 42 -2 47 29 73 32 27 35 28 59 13
14 -9 33 -22 42 -30z m-472 -13 c0 -26 -16 -42 -68 -69 -50 -26 -97 -24 -97 5
0 13 10 23 30 30 17 5 33 14 37 20 6 8 66 30 91 34 4 1 7 -8 7 -20z m-196 -81
c-9 -30 -20 -36 -77 -44 -45 -6 -87 -33 -87 -56 0 -4 -17 -8 -37 -8 -21 -1
-49 -7 -63 -15 -14 -8 -38 -14 -54 -15 -16 0 -37 -7 -47 -16 -20 -18 -104 -45
-113 -37 -14 15 -4 33 22 39 15 4 45 15 67 25 22 10 53 19 69 19 23 0 27 4 23
20 -4 16 2 20 42 25 25 3 57 9 71 12 14 4 29 5 33 4 5 -1 6 3 3 8 -14 22 6 39
47 39 23 1 53 5 67 11 37 15 42 13 34 -11z m-544 -220 c0 -14 -105 -69 -130
-68 -9 0 -20 -4 -25 -9 -6 -4 -32 -14 -58 -21 -41 -11 -50 -11 -58 1 -7 11 2
17 39 25 26 7 61 19 77 27 17 8 41 17 55 19 14 2 31 11 38 21 15 20 62 23 62
5z m942 -170 c32 -11 62 -26 68 -34 7 -7 27 -18 46 -24 19 -6 34 -18 34 -25 0
-8 10 -17 22 -21 12 -3 42 -25 67 -48 53 -49 157 -120 189 -130 12 -4 27 -16
32 -27 6 -10 17 -19 24 -19 7 0 23 -11 36 -25 13 -14 29 -25 35 -25 6 0 28
-16 48 -35 20 -19 44 -35 52 -35 9 0 18 -7 22 -15 6 -17 57 -47 71 -43 8 3 56
-31 99 -70 14 -13 35 -28 47 -33 36 -16 90 -50 116 -73 53 -47 219 -136 253
-136 9 0 19 -4 22 -10 3 -5 14 -10 25 -10 10 0 20 -6 23 -14 3 -7 23 -15 44
-18 45 -6 220 -74 243 -93 8 -8 51 -32 94 -55 44 -23 100 -57 125 -76 25 -18
67 -45 93 -59 26 -13 50 -29 53 -35 4 -6 31 -23 61 -37 94 -44 208 -193 216
-280 10 -109 -24 -109 -134 0 -46 46 -108 100 -138 120 -30 20 -73 49 -95 64
-56 40 -122 73 -145 73 -11 0 -20 6 -20 14 0 8 -15 17 -36 21 -20 3 -44 10
-53 15 -9 5 -34 16 -56 25 -22 9 -60 27 -85 39 -25 13 -56 27 -70 31 -14 4
-34 15 -45 25 -20 18 -174 100 -187 100 -4 0 -30 14 -58 30 -28 17 -57 30 -65
30 -7 0 -15 3 -17 8 -3 7 -70 41 -278 142 -154 75 -212 110 -257 155 -49 49
-120 108 -150 124 -13 6 -23 16 -23 22 0 12 -66 79 -77 79 -5 0 -21 12 -35 28
-37 37 -67 62 -75 62 -15 0 -93 42 -93 51 0 5 -15 16 -32 25 -18 9 -36 22 -40
29 -4 7 -19 16 -32 19 -29 7 -85 40 -129 77 -18 15 -42 29 -55 33 -55 18 -41
81 21 89 56 6 140 -4 199 -25z m-1272 2 c0 -5 -4 -10 -9 -10 -6 0 -13 5 -16
10 -3 6 1 10 9 10 9 0 16 -4 16 -10z m-112 -12 c-2 -7 -20 -21 -39 -30 -19 -9
-41 -23 -49 -31 -24 -22 -56 -37 -93 -41 -29 -4 -34 -2 -32 12 2 9 4 19 4 22
1 3 11 6 24 7 44 3 113 28 137 51 26 24 54 30 48 10z m-268 -122 c0 -18 -43
-28 -86 -20 -62 12 -39 32 39 33 34 1 47 -3 47 -13z m-820 -326 c12 -8 9 -10
-13 -10 -16 0 -26 4 -22 10 8 12 16 12 35 0z m-260 -105 c0 -17 -55 -48 -73
-42 -7 3 -4 8 8 13 11 4 26 16 33 26 16 22 32 23 32 3z m4988 -75 c29 -18 32
-24 32 -69 0 -74 -16 -86 -140 -110 -58 -11 -123 -29 -145 -41 -21 -11 -47
-20 -57 -20 -9 0 -32 -7 -50 -16 -31 -14 -36 -14 -80 6 -55 24 -59 29 -60 72
-1 37 33 69 102 95 25 9 50 21 55 28 13 15 161 55 206 55 19 0 41 5 49 10 23
15 52 12 88 -10z m-5273 -41 c4 -6 5 -13 2 -16 -8 -7 -47 7 -47 18 0 13 37 11
45 -2z m-85 -24 c0 -8 -9 -19 -20 -25 -24 -13 -27 2 -4 24 19 20 24 20 24 1z"/>
<path d="M5919 8439 c-37 -5 -73 -19 -103 -40 -41 -27 -47 -35 -44 -63 l3 -31
85 3 c119 4 225 -27 294 -85 55 -46 133 -77 157 -62 11 7 12 12 2 26 -7 10
-19 32 -27 49 -7 17 -25 40 -40 51 -14 12 -26 27 -26 34 0 14 -84 64 -202 121
-20 9 -20 9 -99 -3z"/>
<path d="M6450 8435 c0 -6 33 -45 73 -87 85 -90 127 -142 127 -156 0 -6 10
-18 22 -26 24 -17 30 -33 32 -91 l1 -40 -47 2 c-40 1 -47 -2 -52 -20 -3 -12 0
-24 6 -26 6 -2 37 -27 68 -55 31 -28 79 -69 106 -91 78 -65 202 -191 269 -276
26 -32 65 -59 86 -59 12 0 19 16 28 63 6 34 16 84 22 110 6 26 11 74 11 106 0
48 -4 62 -26 86 l-26 28 -1 -79 c-2 -115 -9 -139 -39 -139 -18 0 -29 9 -42 34
-9 19 -31 43 -48 54 -45 28 -47 56 -11 150 17 46 31 94 31 107 0 13 7 31 16
41 9 10 19 38 21 62 4 36 0 51 -23 86 -32 50 -102 91 -115 69 -12 -19 -11 -31
5 -53 20 -27 10 -173 -15 -231 -18 -39 -39 -52 -39 -22 0 6 -19 34 -43 62 -24
28 -55 72 -70 98 -15 26 -33 51 -40 55 -7 4 -18 19 -25 33 -7 14 -24 44 -37
68 l-24 42 22 14 c26 16 107 20 107 6 0 -6 13 -10 30 -10 17 0 37 -9 49 -21
15 -16 26 -20 46 -15 15 4 25 12 22 19 -4 15 -156 66 -217 73 -25 3 -63 10
-85 15 -75 18 -175 26 -175 14z m732 -650 c3 -14 1 -25 -3 -25 -5 0 -9 11 -9
25 0 14 2 25 4 25 2 0 6 -11 8 -25z"/>
<path d="M4801 8289 c-13 -5 -32 -7 -41 -4 -18 6 -50 -18 -50 -36 0 -5 -9 -9
-19 -9 -10 0 -21 -7 -25 -15 -3 -8 -12 -15 -21 -15 -8 0 -15 -7 -15 -15 0 -8
-20 -35 -45 -59 -25 -25 -45 -50 -45 -56 0 -32 134 -10 180 30 13 11 33 20 45
20 12 0 33 8 46 19 13 10 34 21 47 25 12 4 22 12 22 17 0 5 34 9 75 9 65 0 76
3 85 20 15 29 4 56 -28 68 -35 13 -180 14 -211 1z"/>
<path d="M3050 8181 c0 -24 33 -42 64 -35 40 8 42 10 26 29 -14 16 -90 21 -90
6z"/>
<path d="M7150 7963 c0 -24 5 -43 10 -43 13 0 13 50 0 70 -7 11 -10 4 -10 -27z"/>
<path d="M2331 7746 c-6 -25 -11 -57 -11 -72 0 -38 21 -94 36 -94 6 0 14 -22
18 -50 4 -27 12 -50 18 -50 16 0 5 116 -14 137 -10 12 -16 41 -17 88 -3 85
-14 102 -30 41z"/>
<path d="M6153 7194 c-7 -18 4 -348 14 -394 3 -17 9 -30 13 -30 8 0 9 5 32
127 8 40 17 76 21 79 11 12 82 -30 85 -51 2 -10 15 -30 28 -44 23 -25 24 -25
24 -4 0 37 -18 70 -41 76 -19 5 -21 10 -15 38 9 47 -2 96 -24 102 -10 3 -21
18 -25 36 -4 18 -12 30 -18 28 -7 -2 -20 9 -29 25 -19 31 -55 38 -65 12z"/>
<path d="M7312 7150 c0 -14 2 -19 5 -12 2 6 2 18 0 25 -3 6 -5 1 -5 -13z"/>
<path d="M4866 7111 c-8 -9 -17 -34 -21 -56 -4 -22 -17 -65 -30 -95 -21 -50
-28 -95 -40 -243 -2 -28 -10 -54 -19 -60 -20 -16 -36 -61 -36 -103 0 -19 -4
-42 -9 -52 -6 -9 -13 -34 -16 -54 -7 -44 -32 -56 -74 -35 -36 18 -41 10 -41
-60 0 -25 -8 -58 -17 -74 -17 -28 -17 -29 9 -56 15 -16 34 -45 43 -65 8 -21
22 -38 30 -38 15 0 45 48 45 73 0 27 54 86 80 87 l25 1 -28 23 c-40 32 -49
119 -19 168 12 19 26 58 31 88 43 233 92 311 156 250 17 -16 24 -18 28 -8 7
22 -5 82 -20 100 -11 12 -14 39 -13 100 2 46 2 90 1 99 -2 23 -47 30 -65 10z"/>
<path d="M4524 6898 c-5 -7 -9 -19 -11 -27 -1 -8 -11 -27 -22 -42 -12 -16 -21
-44 -21 -63 0 -19 -4 -37 -9 -41 -5 -3 -13 -35 -16 -71 -5 -39 -13 -68 -20
-71 -8 -2 -16 -26 -20 -53 -4 -28 -15 -56 -26 -66 -10 -9 -19 -24 -19 -33 0
-9 -14 -31 -30 -50 -17 -19 -33 -46 -36 -60 -5 -23 -22 -66 -45 -113 -5 -10
-9 -25 -9 -33 0 -9 -6 -26 -14 -38 -16 -25 -33 -118 -19 -102 5 6 33 43 62 83
29 39 59 72 65 72 7 0 21 9 30 19 17 18 17 21 1 45 -13 20 -16 37 -11 71 4 25
11 45 15 45 5 0 14 21 20 47 7 26 21 59 32 75 11 15 18 28 14 28 -3 0 1 10 9
22 9 12 16 32 16 45 0 12 7 29 16 37 14 14 18 14 45 1 26 -14 29 -21 29 -62 0
-29 8 -58 21 -79 28 -46 49 -44 49 2 0 27 -4 35 -14 31 -16 -6 -26 31 -26 96
0 23 -7 48 -16 58 -15 17 -15 24 1 91 12 53 14 83 8 108 -10 36 -35 51 -49 28z"/>
<path d="M4048 6837 c-30 -72 -47 -197 -49 -365 -1 -62 -5 -114 -8 -117 -12
-7 -12 -152 -2 -193 10 -36 15 -127 26 -447 3 -88 10 -187 15 -220 15 -100 19
-174 7 -148 -5 12 -16 24 -25 28 -20 7 -52 -23 -52 -48 0 -11 -7 -29 -16 -38
-14 -15 -16 -41 -15 -150 2 -152 16 -314 30 -349 8 -20 10 -12 10 42 1 101 36
233 62 233 8 0 28 -29 46 -65 49 -98 113 -162 113 -112 0 30 -28 175 -44 227
-9 28 -19 76 -22 108 -4 31 -11 60 -15 63 -5 3 -6 16 -3 28 3 13 1 39 -4 58
-13 49 0 78 37 78 16 0 33 -5 37 -11 9 -15 24 9 24 39 0 32 49 175 64 187 7 6
18 24 25 42 15 37 103 123 125 123 8 0 19 7 24 16 5 9 35 21 70 29 55 11 63
11 77 -5 8 -9 15 -22 15 -29 0 -8 19 -11 60 -9 33 1 65 -3 71 -9 11 -11 7
-142 -7 -218 -12 -69 -29 -85 -90 -85 -29 0 -71 6 -91 14 -21 8 -50 17 -66 20
-20 5 -32 17 -45 46 -9 22 -21 39 -27 37 -5 -2 -19 -21 -30 -43 -17 -33 -20
-58 -20 -164 1 -142 3 -149 88 -234 41 -41 58 -51 100 -57 28 -5 61 -6 74 -3
33 9 29 34 -5 34 -17 0 -40 12 -60 29 -34 31 -39 45 -21 57 6 3 8 15 6 26 -6
22 17 35 36 21 6 -6 47 -11 89 -11 72 -1 80 1 104 25 15 15 30 38 34 52 4 19
13 26 30 26 19 0 25 -8 36 -50 11 -43 11 -52 -2 -61 -8 -7 -13 -16 -12 -22 3
-11 -57 -72 -72 -72 -5 0 -10 -4 -10 -10 0 -11 46 -12 72 -2 9 4 31 27 49 52
18 25 38 50 45 55 23 18 54 137 60 236 7 92 6 98 -21 145 -53 93 -89 149 -102
157 -20 13 -15 24 17 37 33 14 38 25 15 34 -8 3 -15 12 -15 20 0 30 -175 75
-284 72 -82 -2 -215 -45 -257 -83 -14 -12 -30 -23 -36 -23 -5 0 -27 -13 -48
-30 -21 -16 -43 -30 -50 -30 -6 0 -27 -24 -46 -52 l-34 -53 -3 45 c-3 34 1 48
15 60 18 14 37 81 50 169 4 25 2 32 -8 29 -8 -3 -16 -13 -18 -24 -6 -35 -36
-44 -46 -14 -4 11 -10 18 -14 16 -14 -9 -32 154 -33 284 0 69 4 212 10 318 8
128 8 210 2 244 -6 28 -11 53 -13 54 -2 2 -15 -25 -29 -59z m672 -1411 c0 -15
-21 -36 -36 -36 -19 0 -24 28 -8 44 16 16 44 11 44 -8z"/>
<path d="M6360 6838 c0 -7 7 -26 15 -42 8 -15 15 -36 15 -45 0 -9 9 -33 20
-54 11 -20 20 -50 20 -66 0 -17 5 -33 10 -36 6 -3 10 0 10 7 0 23 20 -15 20
-39 0 -12 5 -25 10 -28 6 -4 10 13 10 44 0 36 -5 55 -19 68 -10 10 -29 53 -41
95 -16 55 -30 82 -46 93 -18 12 -24 12 -24 3z"/>
<path d="M4980 6711 c0 -19 17 -38 25 -29 7 7 -7 48 -16 48 -5 0 -9 -9 -9 -19z"/>
<path d="M5295 6700 c-4 -6 -11 -8 -16 -5 -14 9 -23 -25 -10 -38 6 -6 11 -22
11 -36 0 -26 22 -98 40 -132 5 -9 12 -51 15 -93 3 -41 12 -94 20 -116 8 -22
10 -40 5 -40 -6 0 -10 -9 -10 -20 0 -11 -8 -25 -19 -32 -18 -11 -18 -13 3 -72
11 -34 24 -62 29 -64 4 -2 7 -9 7 -15 0 -6 7 -18 15 -27 19 -21 55 -160 55
-212 0 -76 47 -109 69 -48 5 17 14 30 20 30 6 0 18 17 27 38 10 20 25 48 34
62 44 66 17 108 -32 49 -33 -39 -54 -33 -61 18 -3 21 -11 57 -18 80 -11 35
-11 46 1 68 12 23 12 30 -2 58 -18 34 -24 63 -37 167 -12 93 -54 237 -91 315
-5 11 -14 32 -20 48 -10 28 -24 35 -35 17z"/>
<path d="M5021 6664 c0 -11 3 -14 6 -6 3 7 2 16 -1 19 -3 4 -6 -2 -5 -13z"/>
<path d="M5021 6624 c0 -11 3 -14 6 -6 3 7 2 16 -1 19 -3 4 -6 -2 -5 -13z"/>
<path d="M5040 6620 c0 -17 27 -65 44 -79 13 -11 16 -11 16 3 0 9 -4 16 -10
16 -5 0 -10 9 -10 19 0 30 -11 51 -26 51 -8 0 -14 -5 -14 -10z"/>
<path d="M5086 6484 c-8 -31 -8 -32 45 -56 l42 -18 -6 37 c-10 61 -69 88 -81
37z"/>
<path d="M2610 6243 c0 -21 3 -24 9 -14 5 8 7 20 4 28 -8 21 -13 15 -13 -14z"/>
<path d="M6115 5930 c-3 -5 -1 -10 4 -10 6 0 11 5 11 10 0 6 -2 10 -4 10 -3 0
-8 -4 -11 -10z"/>
<path d="M6310 5860 c0 -41 -6 -72 -20 -97 -11 -21 -20 -54 -20 -74 0 -65 -86
-109 -118 -59 -7 11 -19 20 -27 20 -8 0 -15 6 -15 13 0 10 -18 34 -86 111 -17
18 -17 18 -30 -5 -15 -29 -45 -166 -51 -230 -5 -64 63 -234 102 -255 15 -8 31
-14 35 -14 5 0 7 30 7 67 l-2 67 45 9 c28 6 50 5 60 -1 20 -12 66 -4 81 14 20
24 38 -14 39 -78 0 -62 14 -77 25 -28 4 17 11 30 16 30 17 0 61 111 71 179 14
95 1 249 -23 280 -10 13 -19 28 -19 33 0 12 -53 78 -62 78 -5 0 -8 -27 -8 -60z"/>
<path d="M7005 5663 c-3 -10 -9 -80 -11 -156 -3 -76 -10 -150 -15 -165 -6 -15
-7 -23 -3 -20 4 4 15 3 25 -3 11 -5 19 -8 19 -6 0 3 7 44 15 93 12 65 13 101
6 134 -5 25 -9 62 -9 84 0 44 -16 67 -27 39z"/>
<path d="M2586 5496 c3 -37 -1 -76 -10 -105 -9 -25 -17 -73 -20 -106 -4 -56
-19 -110 -50 -180 -18 -40 -30 -125 -18 -125 5 0 15 7 22 16 8 9 25 14 44 12
24 -2 35 -11 48 -38 10 -19 20 -47 23 -62 3 -16 12 -28 20 -28 19 0 27 33 23
95 -5 99 2 193 15 207 14 14 13 28 -5 65 -7 13 -9 53 -5 100 7 100 0 124 -43
144 -20 10 -38 27 -42 40 -3 13 -4 -2 -2 -35z"/>
<path d="M2533 4353 c9 -2 25 -2 35 0 9 3 1 5 -18 5 -19 0 -27 -2 -17 -5z"/>
<path d="M2425 4310 c-3 -5 3 -10 15 -10 12 0 18 5 15 10 -3 6 -10 10 -15 10
-5 0 -12 -4 -15 -10z"/>
<path d="M2340 4270 c0 -5 7 -7 15 -4 8 4 15 8 15 10 0 2 -7 4 -15 4 -8 0 -15
-4 -15 -10z"/>
<path d="M1750 4261 c-8 -5 -40 -14 -70 -21 -52 -12 -134 -41 -172 -61 -10 -5
-27 -9 -38 -9 -11 0 -20 -5 -20 -11 0 -6 -6 -9 -14 -6 -8 3 -20 -1 -26 -9 -7
-8 -21 -14 -31 -14 -11 0 -27 -4 -37 -9 -20 -10 -104 -40 -147 -52 -28 -7 -71
-23 -275 -99 -236 -89 -354 -130 -369 -130 -7 0 -46 -15 -86 -34 -40 -19 -131
-53 -202 -76 -70 -23 -157 -55 -193 -71 l-65 -29 -3 -160 c-2 -106 1 -160 8
-160 6 0 40 14 77 30 36 17 71 30 78 30 7 0 33 11 59 25 26 14 57 25 70 25 13
0 31 9 41 20 10 11 44 28 74 36 31 9 70 24 86 33 17 10 44 21 60 25 16 4 48
16 72 27 23 10 48 19 55 19 7 0 26 7 41 15 16 8 50 21 75 29 26 8 65 23 87 35
22 11 65 29 95 40 139 50 249 93 295 116 28 14 58 25 67 25 17 0 52 13 143 55
28 13 68 30 90 38 135 50 162 62 176 74 8 7 24 13 35 13 11 0 38 9 59 21 22
11 59 27 83 35 133 46 216 104 149 104 -12 0 -32 7 -44 15 -76 53 -238 91
-283 66z"/>
<path d="M2217 4229 c8 -8 19 -8 40 -1 28 10 28 10 -11 11 -29 1 -37 -2 -29
-10z"/>
<path d="M2178 4193 c7 -3 16 -2 19 1 4 3 -2 6 -13 5 -11 0 -14 -3 -6 -6z"/>
<path d="M5000 3860 c0 -4 7 -13 15 -20 8 -7 15 -19 15 -26 0 -22 21 -16 27 7
5 16 12 20 34 17 17 -3 30 1 33 9 4 9 -4 13 -22 14 -15 0 -44 1 -64 3 -21 2
-38 0 -38 -4z"/>
<path d="M8507 3648 c-8 -23 13 -47 50 -57 20 -6 39 -8 42 -6 5 6 -68 75 -79
75 -5 0 -10 -6 -13 -12z"/>
<path d="M8756 3447 c-17 -12 -17 -14 -2 -20 12 -5 16 -19 16 -56 0 -48 0 -49
31 -47 17 1 35 9 40 17 11 21 -10 67 -34 75 -10 3 -22 14 -25 25 -7 17 -10 18
-26 6z"/>
<path d="M8460 3415 c0 -8 7 -15 15 -15 9 0 18 -6 21 -13 5 -14 70 -11 79 4 3
4 -5 15 -18 23 -17 12 -31 13 -55 7 -20 -6 -30 -6 -27 0 4 5 1 9 -4 9 -6 0
-11 -7 -11 -15z"/>
<path d="M8687 3276 c-14 -13 -30 -26 -35 -27 -5 -2 -13 -14 -16 -26 -7 -20
-4 -23 22 -23 16 0 44 5 61 11 28 10 32 15 26 36 -3 14 -12 31 -19 39 -12 11
-18 9 -39 -10z"/>
<path d="M1511 3214 c-17 -14 -31 -29 -31 -33 0 -4 32 -7 72 -7 47 1 73 -3 75
-11 8 -22 73 -57 85 -45 8 8 2 20 -21 42 -17 17 -31 35 -31 40 0 18 -46 40
-81 40 -26 0 -47 -8 -68 -26z"/>
<path d="M6995 3227 c-108 -28 -155 -95 -186 -267 -9 -52 -22 -113 -28 -135
-6 -22 -11 -62 -11 -89 0 -54 -25 -194 -43 -241 -6 -16 -22 -48 -36 -70 -14
-22 -33 -57 -43 -78 -11 -24 -33 -47 -62 -65 l-45 -27 -1 -108 c0 -85 -4 -116
-19 -145 -10 -20 -26 -68 -35 -107 -34 -144 -39 -161 -58 -202 -11 -24 -24
-45 -29 -49 -17 -10 -10 -96 8 -109 16 -12 16 -14 0 -29 -13 -13 -17 -35 -17
-84 0 -37 -5 -96 -11 -132 -6 -36 -14 -99 -18 -141 -4 -41 -15 -90 -24 -108
-9 -19 -17 -61 -18 -104 -1 -40 -7 -86 -14 -103 -7 -17 -13 -41 -13 -55 0 -25
-34 -145 -51 -176 -12 -23 -41 -153 -41 -185 0 -14 -11 -45 -24 -70 -37 -70
-81 -245 -67 -266 3 -5 23 -12 45 -16 35 -7 38 -9 34 -37 l-5 -29 121 0 c112
0 124 2 166 26 25 15 69 35 99 45 30 10 59 23 65 28 6 4 29 14 51 21 22 7 55
21 73 32 28 17 119 54 185 75 9 3 17 9 17 13 0 5 35 23 78 40 42 18 86 40 97
49 11 9 54 28 95 41 41 13 84 32 96 42 11 10 27 18 35 18 9 0 38 11 65 25 27
14 86 41 130 60 45 19 97 43 115 54 19 12 42 21 51 21 9 0 24 7 33 16 8 9 35
18 58 21 23 3 51 13 62 23 11 9 40 23 64 30 24 8 81 33 128 57 47 24 90 43 96
43 5 0 33 11 61 24 28 13 71 30 96 37 25 7 55 21 67 32 27 24 166 85 213 93
19 4 46 15 59 25 13 11 30 19 38 19 7 0 16 7 19 15 4 8 14 15 24 15 9 0 35 12
56 26 21 15 54 33 72 41 17 7 32 20 32 29 0 11 -5 14 -17 9 -71 -29 -177 -31
-209 -4 -8 6 -42 22 -77 34 -34 12 -107 44 -163 72 -55 28 -112 54 -125 58
-13 4 -41 19 -61 31 -21 13 -43 24 -50 24 -7 0 -53 20 -103 44 -49 25 -121 59
-160 76 -38 18 -77 36 -85 41 -8 5 -43 23 -77 40 -57 28 -72 47 -73 85 0 18
56 84 100 118 22 16 42 38 45 47 3 9 16 21 28 26 31 14 77 106 77 151 0 21 -5
53 -10 72 -29 114 -42 158 -54 185 -28 61 -85 183 -135 290 -28 61 -51 115
-51 119 0 5 -12 25 -27 45 -41 53 -58 83 -82 144 -7 18 -17 27 -28 25 -20 -4
-65 -91 -89 -173 -16 -53 -52 -133 -79 -175 -6 -8 -15 -30 -20 -49 -6 -19 -18
-39 -28 -45 -15 -9 -23 -4 -55 34 -20 25 -51 59 -69 76 -18 17 -33 39 -33 50
0 27 -16 48 -29 40 -7 -5 -11 3 -11 22 0 16 -8 40 -19 53 -10 13 -28 51 -40
84 -12 33 -28 66 -34 74 -36 43 -37 253 -1 292 8 9 18 33 21 53 5 33 4 36 -18
35 -13 -1 -42 -6 -64 -12z m-58 -149 c-3 -8 -6 -5 -6 6 -1 11 2 17 5 13 3 -3
4 -12 1 -19z m8 -88 c-5 -15 -10 -19 -17 -12 -5 5 -7 20 -3 32 5 15 10 19 17
12 5 -5 7 -20 3 -32z m-29 -229 c-17 -19 -20 -42 -10 -78 8 -31 24 -29 24 2 0
14 4 25 10 25 5 0 7 7 4 15 -8 20 23 48 46 42 15 -4 20 0 21 16 1 12 5 -2 9
-32 5 -29 18 -66 29 -82 12 -15 21 -34 21 -42 0 -8 9 -22 21 -33 45 -41 88
-163 49 -139 -11 7 -13 -37 -4 -72 8 -30 22 -29 34 2 5 14 14 25 19 25 26 0
41 -15 41 -40 0 -29 36 -84 50 -75 10 6 17 -31 20 -95 1 -49 12 -71 58 -117
24 -24 37 -29 61 -25 29 4 31 2 31 -25 0 -25 7 -34 50 -57 52 -29 92 -64 85
-76 -2 -3 14 -26 36 -51 21 -24 40 -38 40 -31 3 26 4 31 12 38 4 4 7 -4 7 -17
0 -13 3 -33 5 -44 8 -33 -7 -45 -48 -38 -31 5 -37 10 -37 29 0 22 -4 24 -42
23 -24 0 -37 -3 -30 -6 6 -2 12 -11 12 -19 0 -7 14 -20 30 -29 44 -23 37 -85
-10 -85 -8 0 -21 -9 -28 -20 -16 -25 -32 -17 -32 16 0 13 -4 24 -9 24 -15 0
-23 -18 -11 -25 5 -3 7 -18 4 -33 -2 -15 -6 -36 -7 -47 -3 -21 -21 -33 -23
-15 -1 6 -2 13 -3 17 -1 9 -71 -67 -71 -78 0 -5 -7 -9 -15 -9 -9 0 -21 -11
-27 -25 -6 -14 -36 -39 -66 -56 -36 -20 -58 -40 -65 -60 -6 -16 -15 -29 -20
-29 -4 0 -16 -17 -25 -38 -10 -22 -25 -47 -35 -56 -18 -19 -24 -41 -7 -31 6 3
10 4 10 1 0 -2 3 -11 6 -20 4 -12 0 -16 -16 -16 -13 0 -20 -5 -17 -12 2 -8 17
-12 36 -10 26 2 33 -3 41 -23 5 -14 15 -25 23 -25 16 0 23 -55 20 -163 -3 -79
-19 -117 -44 -101 -8 5 -10 0 -6 -17 7 -27 -6 -55 -21 -45 -5 3 -13 -5 -16
-19 -7 -26 -64 -85 -82 -85 -7 0 -19 -16 -28 -35 -10 -20 -20 -34 -24 -31 -12
7 -107 -51 -107 -66 0 -7 -4 -18 -10 -24 -5 -7 -18 -21 -27 -33 -10 -11 -27
-21 -38 -21 -12 0 -19 -4 -16 -9 6 -9 -36 -31 -60 -31 -20 0 -44 -24 -44 -45
0 -17 -38 -35 -75 -35 -13 0 -30 -7 -37 -15 -7 -9 -19 -22 -25 -30 -7 -7 -13
-20 -13 -27 0 -7 -14 -19 -31 -27 -26 -11 -32 -11 -48 3 -25 23 -50 20 -63 -9
-8 -19 -8 -28 2 -40 15 -18 7 -30 -15 -22 -11 5 -15 24 -16 79 -1 70 -2 71
-12 35 -11 -37 -12 -38 -54 -34 -45 3 -72 17 -34 17 12 0 20 4 17 9 -4 5 0 11
6 14 7 2 10 8 5 12 -4 5 -13 0 -21 -10 -9 -13 -15 -15 -20 -6 -8 13 1 51 12
50 22 -4 30 4 31 29 0 15 0 38 1 51 0 14 6 34 14 47 11 16 14 39 9 91 -5 58
-3 72 12 87 14 14 18 37 19 123 1 75 5 108 14 111 8 2 12 27 12 75 0 65 2 73
23 82 21 10 22 14 18 113 -2 70 0 102 8 102 6 0 12 -10 12 -22 5 -86 18 -104
20 -27 3 79 -2 123 -13 130 -8 5 -2 27 24 85 16 34 15 89 -1 86 -10 -2 -12 4
-6 25 31 116 46 228 32 250 -8 13 16 35 34 30 8 -2 10 -2 5 1 -4 2 -2 8 5 12
10 7 10 11 0 24 -9 11 -10 20 -1 36 6 12 14 19 17 16 3 -3 12 2 19 12 9 13 9
19 1 25 -8 5 -6 7 5 5 9 -2 24 6 32 17 9 11 16 14 16 8 0 -7 11 -13 25 -13 40
0 75 21 81 49 3 14 9 33 14 42 4 8 6 26 3 40 -5 26 27 69 52 69 20 0 19 39 0
46 -21 8 -19 33 5 52 21 19 38 72 23 72 -6 0 -10 21 -11 48 0 26 -2 61 -4 77
-6 55 10 129 33 148 12 9 17 17 12 17 -10 0 -33 57 -33 82 0 8 9 27 20 41 13
17 20 40 20 71 0 34 6 50 23 66 l22 21 3 -56 c2 -41 -1 -62 -12 -74z m-119
-453 c-3 -7 -5 -2 -5 12 0 14 2 19 5 13 2 -7 2 -19 0 -25z m924 -521 c-8 -8
-11 -3 -11 19 1 25 2 27 11 11 8 -14 8 -22 0 -30z m-301 -936 c0 -17 -12 -41
-21 -41 -5 0 -9 11 -9 25 0 16 6 25 15 25 8 0 15 -4 15 -9z m235 -41 c0 -11
-12 -15 -42 -15 -24 0 -43 5 -43 10 0 6 9 10 20 10 10 0 22 4 26 8 12 12 39 3
39 -13z m-261 -47 c-9 -35 -13 -43 -25 -43 -14 0 -11 58 4 63 24 10 27 7 21
-20z m256 -2 c0 -5 -6 -14 -14 -20 -11 -9 -15 -7 -19 9 -4 15 0 20 14 20 10 0
19 -4 19 -9z m-203 -56 c-3 -21 -2 -35 4 -35 6 0 9 -6 7 -12 -3 -7 -11 -13
-19 -13 -9 0 -14 -11 -14 -30 0 -24 -5 -31 -25 -34 -14 -1 -28 -8 -32 -15 -4
-6 -8 1 -8 17 0 15 5 27 10 27 6 0 10 6 10 14 0 13 60 114 69 115 2 1 1 -15
-2 -34z m253 15 c0 -5 -5 -10 -11 -10 -5 0 -7 5 -4 10 3 6 8 10 11 10 2 0 4
-4 4 -10z m-300 -20 c-8 -5 -17 -7 -19 -4 -3 3 1 9 9 14 8 5 17 7 19 4 3 -3
-1 -9 -9 -14z m-110 -86 c0 -27 -20 -54 -40 -54 -26 0 -26 20 1 27 11 3 18 11
15 18 -5 14 2 25 16 25 4 0 8 -7 8 -16z m200 6 c0 -5 -7 -10 -15 -10 -8 0 -15
5 -15 10 0 6 7 10 15 10 8 0 15 -4 15 -10z m-146 -59 c3 -4 -3 -16 -14 -26
-19 -17 -20 -17 -26 0 -9 23 27 47 40 26z m-92 -53 c-5 -5 -39 -19 -75 -32
-52 -18 -67 -20 -67 -10 0 8 8 14 18 14 10 0 27 10 39 23 16 19 27 22 57 19
23 -3 34 -8 28 -14z"/>
<path d="M7103 2454 c-3 -8 -1 -20 6 -27 8 -8 11 -4 11 16 0 30 -7 35 -17 11z"/>
<path d="M6900 2419 c0 -5 5 -7 10 -4 6 3 10 8 10 11 0 2 -4 4 -10 4 -5 0 -10
-5 -10 -11z"/>
<path d="M6880 2250 c0 -5 5 -10 11 -10 5 0 7 5 4 10 -3 6 -8 10 -11 10 -2 0
-4 -4 -4 -10z"/>
<path d="M7465 1890 c-3 -5 1 -10 9 -10 9 0 16 5 16 10 0 6 -4 10 -9 10 -6 0
-13 -4 -16 -10z"/>
<path d="M6420 861 c0 -18 -4 -30 -9 -27 -12 8 -24 -25 -13 -36 5 -5 16 -6 25
-2 14 5 16 14 11 48 -8 52 -14 59 -14 17z"/>
<path d="M6390 684 c0 -19 -6 -34 -15 -38 -25 -9 -18 -36 10 -36 22 0 25 4 25
38 0 20 -5 44 -10 52 -7 11 -10 8 -10 -16z"/>
<path d="M6847 593 c-12 -11 -8 -33 8 -39 8 -3 22 2 31 11 15 14 15 18 3 26
-17 10 -33 11 -42 2z"/>
<path d="M6360 545 c0 -8 5 -15 10 -15 6 0 10 7 10 15 0 8 -4 15 -10 15 -5 0
-10 -7 -10 -15z"/>
<path d="M6775 520 l-28 -29 24 -9 c21 -8 24 -6 27 14 2 13 10 24 17 24 9 0
12 6 9 15 -9 21 -17 19 -49 -15z"/>
<path d="M6590 390 c0 -5 5 -10 10 -10 6 0 10 5 10 10 0 6 -4 10 -10 10 -5 0
-10 -4 -10 -10z"/>
<path d="M6510 280 c0 -5 5 -10 10 -10 6 0 10 5 10 10 0 6 -4 10 -10 10 -5 0
-10 -4 -10 -10z"/>
<path d="M1449 3113 c-5 -31 5 -121 17 -149 8 -18 14 -49 14 -69 0 -29 5 -39
30 -53 16 -9 31 -26 34 -37 3 -11 28 -42 56 -69 27 -26 50 -56 50 -65 0 -27
-41 -58 -83 -64 -50 -8 -71 -24 -54 -42 10 -11 18 -11 43 0 16 7 73 16 127 20
112 8 134 21 88 54 -16 12 -33 21 -37 21 -10 0 -74 72 -74 82 0 8 -53 62 -81
82 -16 11 -83 106 -76 106 3 0 1 17 -5 38 -5 20 -12 61 -16 91 -4 30 -13 56
-19 59 -7 2 -14 0 -14 -5z"/>
<path d="M7580 2935 c0 -23 2 -24 20 -15 11 6 20 17 20 25 0 8 -9 15 -20 15
-15 0 -20 -7 -20 -25z"/>
<path d="M2164 2767 c-7 -20 3 -37 22 -37 18 0 17 10 -1 34 -13 17 -15 17 -21
3z"/>
<path d="M1326 2506 c-15 -13 -24 -26 -19 -29 11 -7 102 34 103 46 1 16 -57 5
-84 -17z"/>
<path d="M1175 2430 c-4 -6 -23 -17 -43 -26 -35 -15 -36 -16 -15 -24 31 -12
73 9 73 38 0 24 -5 28 -15 12z"/>
<path d="M1037 2352 c-10 -10 -17 -24 -17 -30 0 -7 -9 -12 -20 -12 -11 0 -20
-7 -20 -15 0 -20 16 -19 39 3 11 9 31 25 45 35 14 10 26 22 26 27 0 17 -36 11
-53 -8z"/>
<path d="M897 2245 c-5 -10 0 -15 14 -15 12 0 19 5 17 12 -6 18 -25 20 -31 3z"/>
<path d="M2530 2197 c0 -7 7 -22 15 -33 8 -10 15 -27 15 -36 0 -9 11 -29 24
-45 l24 -28 -44 -70 c-24 -39 -52 -85 -61 -102 -9 -18 -20 -33 -24 -33 -4 0
-10 -16 -13 -35 -4 -19 -12 -38 -19 -42 -7 -5 -27 -27 -46 -50 -18 -24 -38
-43 -44 -43 -6 0 -27 -8 -48 -17 -34 -17 -37 -22 -41 -69 -5 -61 -15 -75 -153
-220 -55 -58 -102 -111 -104 -117 -2 -7 -9 -15 -15 -19 -18 -12 -66 -9 -70 5
-2 6 -12 35 -21 62 -16 49 -36 117 -58 203 -14 50 -29 53 -101 21 -26 -11 -73
-23 -104 -26 -33 -4 -67 -14 -81 -24 -17 -14 -42 -19 -95 -20 -120 -2 -144
-16 -30 -18 125 -1 141 -10 125 -69 -7 -22 -16 -44 -21 -47 -6 -3 -10 -20 -10
-36 0 -16 -7 -45 -14 -64 -8 -19 -25 -81 -36 -137 -21 -100 -22 -155 -4 -246
5 -29 -1 -55 -22 -90 -2 -2 -22 -8 -46 -13 -24 -6 -55 -22 -70 -36 -16 -15
-28 -24 -28 -21 0 8 -26 0 -140 -42 -47 -17 -99 -36 -117 -41 -18 -5 -35 -14
-38 -19 -4 -6 -15 -10 -26 -10 -11 0 -37 -11 -57 -25 -20 -14 -45 -25 -55 -25
-10 0 -34 -7 -55 -17 -20 -9 -41 -15 -45 -14 -5 1 -23 -8 -42 -19 -18 -11 -42
-20 -53 -20 -11 0 -33 -10 -49 -23 -15 -13 -53 -32 -83 -41 -30 -10 -91 -35
-134 -57 -44 -21 -88 -39 -98 -39 -10 0 -65 -21 -121 -47 -56 -25 -107 -46
-114 -46 -7 0 -13 -4 -13 -9 0 -4 -9 -8 -20 -8 -11 0 -20 -6 -20 -14 0 -17 59
-80 121 -129 l46 -37 822 0 821 0 0 90 c0 78 2 91 19 100 28 15 32 2 27 -89
-3 -46 0 -81 5 -81 5 0 9 13 9 29 0 31 15 50 23 29 3 -10 8 -10 16 -2 10 9 9
15 -3 27 -21 21 -20 27 4 27 15 0 20 -7 20 -26 0 -21 4 -24 20 -19 15 5 23 0
32 -22 26 -62 29 -63 180 -63 76 0 138 4 138 9 0 5 -7 14 -15 21 -8 7 -15 22
-15 34 0 43 -13 65 -46 81 -27 13 -34 22 -34 44 0 18 -7 31 -17 35 -12 5 -14
9 -5 18 17 17 15 23 -13 36 -14 6 -25 17 -25 24 -1 17 -48 51 -60 43 -17 -10
-50 5 -50 23 0 10 -10 26 -22 37 -23 20 -27 21 -52 24 -7 0 -24 28 -36 61 -25
66 -49 90 -92 90 -28 0 -51 21 -30 28 13 4 -73 94 -100 105 -10 3 -18 13 -18
22 0 8 -4 15 -10 15 -5 0 -10 9 -10 21 0 13 -5 19 -12 16 -23 -8 -51 9 -55 32
-2 13 -10 32 -17 43 -15 21 -11 48 5 48 5 0 17 -16 26 -35 17 -35 17 -35 37
-16 12 11 35 23 51 26 69 16 93 27 103 50 10 22 18 25 61 25 56 0 81 17 81 56
0 17 9 30 29 42 17 9 32 24 35 32 12 32 44 75 55 73 6 -2 11 3 11 11 0 7 7 19
15 26 8 7 15 20 15 29 0 9 10 23 21 31 12 8 39 32 61 53 22 20 42 37 44 37 3
0 15 12 28 27 16 18 33 26 54 26 20 0 32 5 32 14 0 7 5 13 10 13 6 0 10 11 10
25 0 14 5 25 11 25 6 0 1 8 -12 19 -22 17 -22 19 -6 35 9 10 17 28 17 40 0 13
12 31 31 45 30 22 54 65 50 89 -3 20 31 70 51 75 10 3 18 12 18 21 0 29 21 44
46 32 18 -9 25 -24 32 -71 10 -66 9 -115 -2 -134 -11 -18 -15 -234 -4 -254 12
-23 17 -177 7 -198 -5 -10 -3 -24 6 -35 8 -11 14 -26 15 -34 0 -13 -1 -13 -10
0 -9 13 -11 13 -20 0 -6 -10 -5 -17 5 -23 16 -9 20 -62 6 -72 -5 -3 -7 -31 -4
-61 5 -51 4 -58 -17 -74 -22 -16 -22 -18 -5 -49 10 -21 22 -31 31 -27 9 3 14
-1 15 -12 1 -21 4 -64 14 -225 6 -112 5 -130 -9 -140 -8 -7 -17 -26 -18 -42
-3 -53 25 -75 41 -33 8 22 9 21 25 -10 9 -18 14 -37 11 -42 -16 -25 8 -25 35
0 19 18 44 29 69 32 38 3 39 2 45 -32 3 -19 6 -53 6 -74 0 -24 10 -57 26 -84
22 -38 25 -52 20 -93 l-7 -49 40 0 c22 0 43 6 48 13 4 6 6 78 5 159 -3 117 0
153 12 175 8 16 24 49 35 75 14 33 29 51 48 59 79 32 113 55 122 81 6 16 14
28 19 28 5 0 17 21 26 48 9 26 26 66 37 90 23 51 25 82 4 82 -8 0 -15 4 -15 8
0 4 -16 14 -34 20 -19 7 -38 21 -41 31 -5 16 -38 52 -106 116 -9 8 -19 15 -23
15 -5 0 -29 14 -54 31 -26 17 -60 33 -77 36 -16 2 -42 13 -57 24 -15 10 -40
20 -55 21 -17 2 -42 18 -66 42 -32 33 -38 46 -36 75 6 84 42 110 126 90 69
-15 285 -124 328 -164 20 -19 40 -35 45 -35 16 0 97 -86 111 -118 22 -50 41
-41 62 28 28 97 31 142 13 178 -9 17 -16 47 -16 68 0 34 -2 36 -25 30 -31 -8
-70 11 -109 53 -17 17 -34 31 -40 31 -5 0 -20 10 -33 22 -47 44 -175 111 -317
165 -66 26 -104 46 -116 63 -14 19 -21 60 -30 150 -23 263 -24 265 -129 368
-55 53 -71 62 -71 39z m110 -289 c-1 -28 -2 -30 -11 -15 -6 10 -8 25 -5 33 9
24 16 16 16 -18z m20 -208 c0 -5 -5 -10 -11 -10 -5 0 -7 5 -4 10 3 6 8 10 11
10 2 0 4 -4 4 -10z m0 -442 c-1 -45 -3 -58 -10 -46 -9 14 -3 108 6 108 2 0 4
-28 4 -62z m204 -864 c9 -3 16 -13 16 -21 0 -20 -34 -12 -38 10 -4 19 -1 20
22 11z"/>
<path d="M738 2175 c-5 -25 -4 -25 10 -11 12 11 13 19 5 27 -7 7 -12 3 -15
-16z"/>
<path d="M665 2141 c-6 -11 9 -23 19 -14 9 9 7 23 -3 23 -6 0 -12 -4 -16 -9z"/>
<path d="M606 2107 c-19 -15 -25 -26 -18 -31 16 -10 52 15 52 36 0 22 1 23
-34 -5z"/>
<path d="M496 2039 c-27 -21 -33 -43 -16 -54 14 -9 40 13 51 43 5 13 13 20 19
17 5 -3 10 -1 10 4 0 18 -36 12 -64 -10z"/>
<path d="M1080 2030 c-11 -11 -27 -20 -36 -20 -21 0 -96 -21 -109 -31 -5 -4
-30 -12 -55 -19 -61 -15 -150 -52 -150 -61 0 -5 -23 -11 -51 -15 -35 -5 -59
-15 -76 -32 -15 -14 -21 -28 -15 -30 14 -4 133 27 157 42 11 7 36 16 56 20 20
3 44 15 53 25 10 11 38 21 67 25 27 4 56 9 64 12 35 14 11 -28 -45 -76 -79
-69 -99 -126 -28 -82 48 30 105 93 112 125 5 21 10 26 19 19 8 -7 26 6 61 45
39 43 46 57 35 64 -22 14 -37 11 -59 -11z"/>
<path d="M5433 1978 c-13 -13 -23 -26 -23 -29 0 -2 38 -4 85 -3 47 0 91 -3 97
-7 8 -5 13 -30 14 -60 2 -78 -21 -97 -121 -101 l-78 -3 -14 -40 c-7 -22 -24
-51 -38 -65 -21 -22 -26 -42 -39 -155 -15 -131 -17 -164 -36 -549 -8 -142 -15
-215 -25 -230 -7 -11 -16 -64 -20 -116 -6 -97 -12 -133 -41 -255 -9 -38 -22
-108 -29 -155 -7 -47 -17 -96 -23 -110 -5 -14 -12 -42 -16 -62 l-7 -38 244 0
c176 0 246 3 255 12 9 9 12 9 12 0 0 -9 39 -12 145 -12 l145 0 -1 113 c-2 175
-30 463 -53 535 -8 26 -22 92 -31 147 -10 55 -28 141 -41 191 -13 51 -24 106
-24 123 0 18 -6 44 -14 59 -8 16 -19 55 -25 88 -6 34 -25 103 -41 155 -16 52
-30 102 -30 112 0 10 -10 41 -21 68 l-21 49 22 53 c12 28 31 61 41 72 18 20
18 21 -1 38 -15 13 -20 29 -20 68 0 55 -13 89 -35 89 -7 0 -21 8 -31 17 -11
11 -38 19 -78 21 -54 3 -64 1 -83 -20z m284 -1730 c-3 -8 -6 -5 -6 6 -1 11 2
17 5 13 3 -3 4 -12 1 -19z m-57 -168 c0 -19 -11 -26 -23 -14 -8 8 3 34 14 34
5 0 9 -9 9 -20z"/>
<path d="M427 1973 c-10 -16 -18 -93 -13 -111 4 -10 29 -29 57 -42 43 -21 52
-22 60 -10 5 8 9 17 9 20 0 9 -57 40 -63 34 -8 -8 -28 32 -23 48 17 53 16 68
-3 68 -11 0 -22 -3 -24 -7z"/>
<path d="M5370 1893 c0 -12 -4 -24 -10 -28 -10 -6 -2 -35 10 -35 13 0 21 50
11 68 -9 15 -10 14 -11 -5z"/>
<path d="M2577 1743 c-13 -13 -7 -53 8 -53 10 0 15 10 15 30 0 29 -9 38 -23
23z"/>
<path d="M2517 1636 c-18 -14 -14 -46 7 -46 18 0 36 21 36 42 0 21 -18 23 -43
4z"/>
<path d="M595 1529 c-10 -15 3 -25 16 -12 7 7 7 13 1 17 -6 3 -14 1 -17 -5z"/>
<path d="M1050 1514 c0 -8 5 -12 10 -9 6 3 10 10 10 16 0 5 -4 9 -10 9 -5 0
-10 -7 -10 -16z"/>
<path d="M3461 1484 c0 -11 3 -14 6 -6 3 7 2 16 -1 19 -3 4 -6 -2 -5 -13z"/>
<path d="M1037 1473 c-4 -3 -7 -23 -7 -43 0 -28 -6 -42 -22 -53 -21 -14 -22
-17 -7 -31 14 -15 18 -15 44 5 16 13 57 28 98 36 39 7 72 15 75 17 11 12 -12
24 -55 30 -27 3 -61 15 -78 26 -33 22 -38 23 -48 13z"/>
<path d="M670 1395 c-9 -11 -16 -12 -25 -5 -12 10 -65 4 -65 -6 0 -7 54 -106
73 -135 17 -26 21 -27 85 -23 91 6 112 12 112 31 0 14 -10 15 -73 9 -68 -6
-75 -5 -94 16 -12 13 -22 30 -24 38 -2 13 13 59 27 81 9 15 -3 10 -16 -6z"/>
<path d="M967 1343 c-4 -3 -7 -11 -7 -17 0 -6 5 -5 12 2 6 6 9 14 7 17 -3 3
-9 2 -12 -2z"/>
<path d="M884 1295 c-19 -14 -19 -14 2 -15 11 0 29 7 40 15 19 14 19 14 -2 15
-11 0 -29 -7 -40 -15z"/>
<path d="M9101 1253 c-5 -10 -29 -23 -53 -28 -33 -8 -44 -16 -46 -33 -3 -20 0
-22 30 -19 29 3 63 14 108 37 8 4 16 19 18 34 3 22 0 26 -22 26 -14 0 -29 -8
-35 -17z"/>
<path d="M8927 1154 c-4 -4 -4 -10 -1 -15 6 -10 34 0 34 12 0 10 -24 12 -33 3z"/>
<path d="M2600 790 c-8 -26 -8 -70 0 -75 15 -10 21 17 11 50 -5 17 -10 28 -11
25z"/>
<path d="M2595 620 c-3 -5 -1 -10 4 -10 6 0 11 5 11 10 0 6 -2 10 -4 10 -3 0
-8 -4 -11 -10z"/>
<path d="M8955 286 c-22 -7 -49 -18 -60 -24 -52 -30 -270 -132 -283 -132 -8 0
-26 -7 -40 -15 -15 -8 -60 -28 -101 -45 -40 -18 -88 -40 -105 -51 l-31 -19
147 0 147 0 88 44 c48 24 114 57 145 74 86 46 140 51 203 19 27 -14 60 -28 73
-32 23 -7 23 -6 20 67 l-3 73 -40 21 c-54 28 -111 35 -160 20z"/>
<path d="M2780 266 c0 -14 5 -28 10 -31 6 -3 10 0 10 9 0 8 3 21 6 30 4 11 1
16 -10 16 -10 0 -16 -9 -16 -24z"/>
</g>
</svg>
